<?xml version="1.0" standalone="no"?>
<!DOCTYPE svg PUBLIC "-//W3C//DTD SVG 20010904//EN"
 "http://www.w3.org/TR/2001/REC-SVG-20010904/DTD/svg10.dtd">
<svg version="1.0" xmlns="http://www.w3.org/2000/svg"
 width="500.000000pt" height="500.000000pt" viewBox="0 0 500.000000 500.000000"
 preserveAspectRatio="xMidYMid meet">
<metadata>
Created by potrace 1.14, written by Peter Selinger 2001-2017
</metadata>
<g transform="translate(0.000000,500.000000) scale(0.100000,-0.100000)"
fill="#000000" stroke="none">
<path d="M2462 4737 c-36 -38 -209 -119 -292 -136 -48 -10 -86 -32 -146 -83
-68 -57 -158 -127 -206 -159 -47 -32 -138 -137 -138 -159 0 -9 -11 -27 -25
-40 -14 -13 -25 -28 -25 -34 0 -6 -16 -33 -35 -60 -27 -38 -35 -60 -35 -92 0
-23 -11 -67 -25 -98 -14 -31 -25 -64 -25 -74 0 -9 -7 -26 -15 -36 -8 -11 -15
-31 -15 -44 0 -14 -9 -39 -19 -56 -19 -31 -61 -281 -61 -363 0 -21 -4 -43 -9
-48 -17 -18 -16 -166 1 -220 9 -27 16 -57 16 -65 1 -8 3 -53 7 -98 5 -82 -6
-147 -29 -164 -8 -5 -2 -58 18 -178 2 -8 6 3 9 25 4 22 14 78 23 125 9 47 19
108 24 136 4 27 15 75 24 105 8 29 25 113 36 185 l21 131 61 62 c36 38 58 67
54 76 -3 8 1 30 9 49 19 45 19 56 -1 56 -13 0 -15 6 -9 28 14 58 18 115 6 108
-15 -10 -14 1 11 80 31 99 86 186 120 190 14 1 37 10 51 18 26 18 83 22 135
11 28 -6 36 -3 55 19 13 14 28 26 35 26 7 0 12 6 12 13 0 10 14 14 44 15 25 0
52 4 61 9 18 10 102 0 179 -23 26 -8 57 -14 67 -14 10 0 33 -9 50 -19 28 -17
29 -20 13 -29 -15 -8 -14 -11 12 -16 16 -4 44 -20 62 -37 18 -16 36 -28 40
-25 5 3 33 0 63 -7 36 -8 78 -10 124 -4 39 4 86 9 105 10 19 2 40 6 47 10 13
8 71 -2 79 -14 2 -4 31 -11 64 -15 33 -4 57 -11 54 -16 -3 -5 0 -8 7 -7 22 5
93 -22 112 -42 10 -11 24 -19 32 -19 8 0 15 -7 15 -15 0 -9 9 -15 25 -15 14 0
37 -7 50 -16 16 -11 40 -15 72 -12 35 2 47 0 45 -10 -1 -7 9 -17 23 -22 14 -5
25 -15 25 -22 0 -7 11 -25 24 -39 22 -23 24 -36 24 -107 0 -71 -2 -82 -19 -87
-12 -4 -19 -15 -19 -31 0 -14 -6 -24 -14 -24 -10 0 -12 -7 -8 -22 5 -21 6 -21
13 -2 6 16 8 15 8 -8 1 -15 -4 -38 -10 -52 -9 -20 -9 -29 0 -40 7 -8 10 -19 7
-24 -3 -6 1 -28 9 -51 8 -23 15 -45 15 -49 1 -4 12 -20 26 -37 30 -36 47 -95
39 -138 -3 -17 -10 -113 -15 -212 -9 -169 -28 -304 -50 -350 -6 -11 -11 -48
-13 -82 -1 -43 -6 -63 -14 -63 -7 0 -13 -7 -13 -16 0 -8 5 -12 10 -9 6 3 10 1
10 -4 0 -6 -4 -11 -9 -11 -15 0 -19 -38 -6 -57 13 -19 14 -50 2 -70 -4 -6 -2
-13 3 -15 13 -4 -16 -68 -31 -68 -5 0 -9 -9 -9 -20 0 -11 -4 -20 -10 -20 -5 0
-10 7 -10 15 0 18 -17 20 -23 3 -2 -7 -8 -10 -12 -6 -11 11 4 28 26 28 22 0
26 25 4 34 -9 3 -15 0 -15 -10 0 -10 -8 -14 -22 -12 -13 2 -22 -2 -21 -9 3
-13 -24 -26 -31 -14 -3 4 2 20 10 35 8 16 13 42 12 59 -1 17 3 32 10 35 6 2
12 10 12 18 0 11 -4 12 -19 4 -23 -12 -71 -10 -71 3 0 5 -12 7 -27 4 -16 -2
-37 -1 -48 3 -14 6 -16 9 -5 10 8 2 2 5 -14 9 -29 6 -99 87 -89 103 2 5 -5 8
-15 8 -12 0 -22 9 -25 21 -3 12 -10 18 -16 14 -6 -3 -15 4 -20 17 -5 13 -29
39 -52 58 -23 19 -55 47 -71 63 -16 15 -38 27 -49 27 -11 0 -35 7 -55 15 -19
8 -41 12 -48 9 -8 -3 -16 4 -20 18 -11 41 -7 68 10 68 8 0 13 -4 10 -9 -3 -5
3 -11 14 -14 21 -5 38 9 18 15 -7 3 -9 12 -4 23 5 15 9 16 15 6 7 -11 13 -11
32 0 l24 12 -23 10 c-12 6 -22 16 -22 24 0 16 22 17 37 2 8 -8 13 -8 17 0 10
15 23 14 29 -3 4 -10 0 -12 -14 -9 -11 3 -19 0 -19 -7 0 -9 11 -11 39 -6 26 4
49 1 67 -9 16 -8 35 -15 43 -15 8 0 20 -8 27 -17 10 -15 15 -16 25 -5 18 17
39 15 39 -4 0 -11 5 -14 16 -10 9 3 18 6 21 6 3 0 0 7 -7 15 -11 13 -6 15 36
16 27 0 67 4 89 8 l40 8 -27 13 c-33 16 -27 30 12 30 21 0 28 4 24 14 -10 27
54 28 119 1 24 -10 22 11 -4 29 -21 14 -21 15 12 18 37 3 47 19 24 41 -10 11
-12 18 -4 22 6 4 8 13 5 20 -2 7 1 24 8 37 9 17 11 40 6 74 -4 27 -5 55 -2 62
5 15 -32 54 -43 44 -4 -4 -5 2 -1 14 5 16 -3 27 -39 53 -60 43 -89 52 -211 64
-23 2 -46 7 -52 11 -6 3 -63 7 -126 8 -78 0 -116 4 -116 12 0 6 -4 6 -9 -2 -4
-8 -17 -13 -27 -12 -33 4 -42 0 -47 -19 -3 -14 -12 -18 -35 -15 -17 2 -34 -1
-37 -7 -4 -5 -16 -7 -28 -4 -12 2 -16 2 -10 -1 10 -4 9 -11 -2 -28 -17 -25
-38 -252 -29 -302 8 -42 10 -241 3 -261 -3 -10 -3 -25 1 -33 5 -8 13 -28 19
-43 6 -15 19 -30 28 -33 85 -27 108 -56 99 -119 -4 -27 -13 -46 -24 -50 -16
-7 -61 -15 -63 -12 0 1 -2 29 -5 62 -3 33 -10 64 -14 69 -10 10 -34 -69 -27
-87 2 -7 -2 -19 -10 -29 -13 -14 -12 -17 7 -23 22 -7 23 -26 0 -33 -7 -3 -10
0 -6 7 11 17 -5 13 -23 -6 -21 -23 -174 -103 -196 -103 -10 0 -38 23 -63 50
-39 43 -56 54 -116 72 -39 12 -80 27 -92 35 -11 7 -24 10 -27 6 -4 -3 -7 -2
-7 4 0 6 -12 13 -27 16 -22 4 -34 -1 -55 -26 -22 -23 -28 -27 -28 -13 0 16
-22 46 -34 46 -3 0 -6 -8 -7 -17 0 -11 -7 -4 -15 16 -14 31 -14 35 6 53 12 11
40 31 63 44 23 13 38 24 33 24 -5 0 1 11 13 24 13 14 20 29 16 35 -17 28 -151
0 -187 -39 -11 -11 -28 -20 -38 -20 -11 0 -20 -3 -20 -7 0 -5 -24 -33 -54 -63
-29 -30 -52 -60 -49 -66 2 -6 -7 -22 -21 -35 -14 -13 -26 -29 -26 -35 0 -6 -6
-17 -14 -23 -15 -13 -27 -57 -17 -67 9 -9 8 -53 -1 -48 -17 11 -7 -14 15 -38
l23 -24 -21 -17 c-11 -9 -15 -16 -7 -17 6 0 12 5 12 10 0 6 7 10 16 10 16 0
16 -1 -3 -64 -4 -13 -2 -17 6 -12 8 6 8 1 -1 -18 -6 -14 -15 -26 -20 -26 -5 0
-8 -8 -7 -18 5 -31 -11 -62 -32 -62 -11 0 -22 -7 -26 -15 -9 -25 6 -31 21 -9
11 14 18 16 26 8 12 -12 2 -23 -42 -42 -24 -10 -28 -9 -28 4 0 10 -6 14 -14
11 -10 -4 -13 5 -12 36 1 31 -3 42 -14 42 -8 0 -17 2 -20 6 -3 3 -13 -3 -22
-13 -10 -10 -13 -18 -7 -18 7 0 0 -11 -14 -24 -16 -15 -22 -28 -17 -36 11 -18
1 -40 -14 -34 -15 6 -13 51 3 67 6 6 11 17 11 24 0 15 28 44 64 68 23 16 39
64 17 50 -5 -3 -12 -1 -15 4 -3 5 -15 7 -26 4 -15 -4 -20 -14 -20 -39 0 -18
-5 -36 -11 -40 -9 -5 -10 1 -5 22 l7 29 -20 -30 c-16 -23 -18 -32 -8 -44 10
-12 9 -13 -8 -4 -11 6 -26 8 -34 5 -10 -3 -12 0 -8 12 6 15 -14 22 -45 17 -4
0 -10 10 -14 24 -3 14 -11 22 -16 19 -7 -4 -8 11 -3 45 5 38 4 51 -5 51 -7 0
-19 8 -27 18 -13 15 -14 13 -7 -18 4 -19 8 -57 9 -85 1 -27 9 -64 18 -82 9
-18 17 -45 17 -61 0 -16 7 -35 15 -42 21 -18 18 -87 -6 -140 -16 -35 -21 -68
-22 -150 -2 -90 3 -123 32 -235 77 -298 160 -518 219 -577 15 -14 59 -43 97
-63 39 -20 96 -56 127 -80 60 -47 138 -137 138 -161 0 -19 6 -18 44 11 18 14
36 25 40 25 4 0 35 13 69 29 34 16 98 42 142 57 94 32 104 38 102 67 -1 28
-15 37 -40 28 -11 -4 -40 -4 -64 0 -24 5 -50 6 -58 3 -10 -4 -13 -2 -10 7 7
20 -104 17 -116 -2 -7 -11 -9 -10 -9 4 0 14 -5 17 -22 11 -13 -3 -20 -4 -17 0
4 4 -7 21 -23 38 -27 29 -27 31 -11 44 10 7 13 14 6 14 -6 0 -39 18 -72 40
-33 22 -64 40 -70 40 -28 0 -161 165 -161 200 0 5 -4 10 -9 10 -11 0 -71 86
-71 101 0 6 -9 23 -19 38 -57 79 -127 243 -141 327 -10 58 -4 151 9 139 3 -4
6 -10 7 -13 1 -12 73 -154 85 -168 6 -8 9 -20 6 -28 -4 -10 0 -12 13 -9 14 4
23 -4 33 -29 8 -19 30 -46 48 -59 39 -26 50 -40 43 -51 -3 -5 1 -11 10 -14 8
-3 12 -12 9 -21 -5 -12 -1 -14 17 -8 15 5 20 4 16 -4 -4 -6 4 -13 18 -17 27
-6 40 -31 31 -57 -4 -8 -2 -18 4 -22 6 -3 11 -2 11 3 0 5 12 7 26 4 22 -4 24
-6 10 -14 -20 -11 -21 -28 -1 -28 8 0 15 -4 15 -10 0 -5 3 -9 8 -8 13 2 56
-19 81 -41 13 -12 30 -21 38 -21 10 0 12 -6 8 -19 -3 -11 -1 -22 5 -26 7 -4 8
-11 1 -18 -11 -14 18 -56 35 -50 6 2 31 -1 54 -6 25 -6 51 -6 60 -1 22 12 45
-4 45 -32 1 -13 4 -29 8 -36 5 -6 5 -12 0 -12 -4 0 -1 -5 7 -10 12 -8 9 -10
-12 -10 -23 0 -28 -4 -28 -25 0 -14 6 -25 13 -25 6 0 -1 -12 -16 -25 -22 -20
-25 -26 -13 -31 26 -10 51 0 54 22 2 17 12 23 45 26 24 3 58 12 77 21 46 21
129 32 112 15 -19 -19 -14 -30 9 -23 16 5 20 3 17 -6 -5 -14 -9 -16 -53 -18
-14 0 -25 -6 -25 -11 0 -7 18 -8 49 -4 46 6 75 -6 51 -21 -6 -4 -8 -11 -5 -16
6 -9 -93 -109 -108 -109 -5 0 -5 -5 -2 -10 3 -6 15 -10 26 -10 10 0 19 -4 19
-10 0 -5 -9 -10 -20 -10 -11 0 -23 -7 -27 -15 -7 -20 -55 -45 -85 -45 -26 -1
-65 -26 -55 -36 4 -4 27 -1 52 6 25 7 48 11 50 8 8 -7 -116 -47 -165 -52 l-45
-6 48 16 c47 15 68 41 25 31 -61 -15 -144 -42 -148 -48 -3 -4 -24 -12 -47 -19
-40 -12 -47 -11 -118 20 -41 18 -80 39 -86 46 -6 8 -19 14 -28 14 -44 0 -98
26 -143 68 -63 59 -91 112 -84 157 5 27 1 37 -16 50 -32 22 -113 19 -166 -6
-62 -30 -148 -122 -183 -196 -30 -63 -51 -78 -64 -45 -3 9 -9 116 -12 237 -7
270 4 353 82 584 30 92 49 161 42 161 -6 0 -24 -4 -41 -10 -223 -71 -854 -216
-1209 -278 l-27 -4 0 -519 0 -519 2500 0 2500 0 0 78 0 77 -92 98 c-104 112
-170 159 -477 333 -57 32 -115 67 -130 76 -27 17 -32 20 -196 107 -55 30 -104
57 -110 61 -9 6 -377 179 -508 238 -31 14 -65 34 -75 45 -44 49 -47 44 -43
-90 4 -159 -10 -219 -94 -402 -35 -76 -69 -158 -75 -182 -7 -24 -43 -109 -80
-189 -37 -80 -73 -157 -79 -173 -6 -16 -18 -27 -30 -27 -24 0 -109 92 -220
240 -36 47 -74 93 -85 104 -35 32 -99 56 -148 56 -27 0 -48 4 -48 9 0 4 27 30
61 56 33 26 97 82 142 124 121 114 182 168 173 154 -4 -7 -4 -13 1 -13 4 0 28
29 52 65 24 35 55 74 69 87 l25 23 -12 -23 c-7 -13 -11 -25 -9 -28 6 -5 100
159 126 219 12 26 24 47 27 47 3 0 3 -5 -1 -12 -4 -6 -3 -8 4 -4 6 3 13 20 17
36 4 16 22 42 40 57 18 16 48 51 67 78 74 111 166 261 173 285 4 14 16 45 27
69 11 24 24 66 29 95 6 28 13 70 18 94 4 23 20 59 34 79 19 27 23 40 16 50 -8
9 -7 20 3 40 10 20 11 36 4 54 -5 14 -6 42 -2 62 6 32 11 37 34 37 22 0 33 10
57 48 30 48 63 133 64 164 1 10 7 37 15 60 39 123 48 162 47 218 0 79 -7 99
-37 106 -40 10 -51 36 -43 96 4 29 13 71 19 93 24 81 33 186 36 425 2 135 4
299 5 366 2 112 0 124 -24 170 -14 27 -30 73 -36 101 -6 29 -24 72 -41 94 -16
23 -30 50 -30 59 0 23 -37 68 -74 91 -17 10 -56 41 -86 69 -179 164 -263 220
-349 231 -30 4 -66 16 -80 27 -14 10 -44 25 -66 32 -22 8 -44 18 -49 22 -6 4
-42 8 -81 8 -39 0 -75 4 -80 8 -23 20 -126 53 -191 62 -38 5 -80 12 -94 15
-19 5 -31 0 -48 -18z m648 -1818 c8 -2 18 -8 22 -14 5 -6 8 -5 8 3 0 6 4 12
10 12 5 0 7 -7 4 -15 -5 -11 -22 -15 -64 -15 -55 0 -78 10 -66 28 5 8 57 8 86
1z m-115 -79 c-3 -5 -1 -10 4 -10 6 0 11 -11 11 -25 0 -23 -2 -24 -25 -13 -29
13 -32 33 -7 47 22 13 25 13 17 1z m75 -10 c0 -5 -7 -7 -15 -4 -8 4 -15 8 -15
10 0 2 7 4 15 4 8 0 15 -4 15 -10z m644 -312 c6 -32 -9 -65 -18 -37 -15 47
-16 69 -2 69 7 0 16 -14 20 -32z m-1479 -492 c11 -4 30 -12 43 -17 12 -5 48
-12 80 -15 31 -4 71 -13 87 -22 17 -8 36 -18 44 -22 8 -3 17 -12 19 -18 3 -9
-14 -10 -60 -7 -35 3 -58 3 -51 -1 7 -3 9 -12 6 -20 -3 -8 3 -17 13 -21 11 -3
22 -11 26 -17 3 -5 29 -9 56 -7 31 1 55 -3 63 -12 20 -19 47 -28 54 -17 10 16
53 11 63 -6 7 -13 13 -13 35 -3 15 7 30 9 33 6 9 -9 -24 -95 -39 -104 -18 -11
-90 -12 -110 -1 -14 7 -22 5 -31 -7 -10 -14 -21 -16 -57 -11 -24 4 -66 9 -94
11 l-50 4 40 -14 c22 -7 54 -14 70 -14 41 -1 113 -23 97 -29 -19 -6 36 -42 66
-42 12 0 31 -5 41 -12 26 -16 51 -3 64 32 11 29 27 41 27 20 0 -6 6 -10 13 -9
6 1 17 1 23 0 14 -1 26 -41 13 -41 -5 0 -9 5 -9 10 0 6 -7 10 -15 10 -14 0
-19 -14 -18 -47 1 -8 -11 -13 -27 -13 -16 0 -31 6 -33 13 -3 7 -6 5 -6 -5 -1
-15 -12 -16 -91 -14 -71 3 -95 8 -111 22 -16 14 -22 16 -28 5 -7 -10 -13 -11
-30 -1 -23 12 -132 12 -166 0 -11 -4 -33 -3 -49 1 -18 5 -36 4 -50 -3 -11 -7
-24 -11 -28 -10 -12 3 -50 -52 -39 -56 6 -2 11 -12 11 -22 0 -22 23 -33 39
-17 8 8 8 1 1 -24 -6 -18 -10 -35 -10 -36 0 -7 -56 20 -62 30 -5 8 -8 4 -8 -9
0 -24 -20 -36 -39 -24 -9 5 -10 10 -2 14 6 4 11 1 12 -6 0 -7 5 -1 10 14 7 18
7 33 0 45 -10 17 -10 17 -11 -2 0 -16 -2 -17 -9 -6 -8 12 -12 13 -25 1 -14
-11 -16 -10 -10 4 3 9 12 16 20 16 8 0 11 6 7 17 -5 14 -10 12 -29 -12 -15
-20 -27 -26 -40 -21 -10 4 -21 1 -25 -6 -4 -7 -11 -9 -15 -5 -4 4 1 14 12 22
10 8 15 15 9 16 -5 1 5 4 24 8 19 3 36 11 38 16 3 9 -28 10 -135 6 -7 -1 -11
-5 -8 -9 2 -4 -7 -8 -22 -9 -15 -1 -21 1 -14 4 6 2 10 9 6 14 -3 5 3 9 13 9
13 0 14 3 5 8 -10 7 -8 12 5 23 16 14 23 15 50 10 4 0 -1 -7 -11 -14 -17 -12
-17 -14 -3 -20 9 -3 20 -1 24 6 10 17 14 129 4 141 -5 6 -7 23 -5 39 1 15 0
27 -4 27 -10 0 -9 142 1 158 14 20 33 14 63 -22 26 -30 89 -76 106 -76 9 0
-14 74 -27 83 -15 11 23 37 54 37 55 0 54 18 0 25 -87 12 -134 36 -112 58 8 9
202 3 228 -7z m1165 -185 c0 -4 -10 -21 -21 -35 -17 -21 -24 -25 -30 -14 -6 9
0 17 16 26 14 7 25 17 25 22 0 6 2 10 5 10 3 0 5 -4 5 -9z m-221 -22 c-8 -16
-14 -18 -22 -10 -9 9 -8 14 3 21 24 16 31 11 19 -11z m318 5 c-3 -3 -12 -4
-19 -1 -8 3 -5 6 6 6 11 1 17 -2 13 -5z m-365 -65 c-18 -33 -42 -50 -42 -30 0
6 5 11 11 11 5 0 7 5 4 10 -3 6 -1 10 4 10 6 0 11 7 11 16 0 8 5 12 10 9 6 -3
10 -1 10 6 0 7 2 10 5 7 3 -3 -2 -20 -13 -39z m-1358 -14 c-4 -8 -8 -15 -10
-15 -2 0 -4 7 -4 15 0 8 4 15 10 15 5 0 7 -7 4 -15z m1112 -40 c1 -8 -2 -15
-7 -15 -5 0 -9 10 -9 22 0 23 12 17 16 -7z m-1111 -15 c-3 -5 -12 -10 -18 -10
-7 0 -6 4 3 10 19 12 23 12 15 0z m1090 -28 c-3 -3 -11 0 -18 7 -9 10 -8 11 6
5 10 -3 15 -9 12 -12z m-1179 -18 c-4 -9 -9 -15 -11 -12 -3 3 -3 13 1 22 4 9
9 15 11 12 3 -3 3 -13 -1 -22z m124 6 c0 -5 -5 -10 -11 -10 -5 0 -7 5 -4 10 3
6 8 10 11 10 2 0 4 -4 4 -10z m-50 -4 c0 -11 -19 -15 -25 -6 -3 5 1 10 9 10 9
0 16 -2 16 -4z m-81 -52 c-17 -21 -31 -17 -17 5 7 11 16 17 20 14 5 -2 4 -11
-3 -19z m57 -20 c-7 -19 -26 -18 -26 1 0 8 5 15 10 15 6 0 9 3 9 8 -3 17 4 25
8 9 3 -10 2 -25 -1 -33z m131 -110 c-3 -3 -12 -4 -19 -1 -8 3 -5 6 6 6 11 1
17 -2 13 -5z m156 -7 c29 6 31 5 18 -11 -8 -9 -21 -14 -28 -11 -19 7 -48 -21
-32 -30 18 -12 -7 -29 -43 -30 -18 0 -40 -5 -48 -10 -13 -8 -13 -7 -1 8 7 9
24 17 37 17 27 0 31 12 9 30 -12 10 -12 14 -2 25 16 15 51 24 55 13 2 -4 18
-4 35 -1z m7 -47 c0 -5 -4 -10 -10 -10 -5 0 -10 5 -10 10 0 6 5 10 10 10 6 0
10 -4 10 -10z m-169 -43 c-6 -8 -9 -17 -6 -21 3 -3 0 -2 -6 3 -12 10 -4 31 13
31 7 0 7 -4 -1 -13z m134 -7 c-27 -12 -43 -12 -25 0 8 5 22 9 30 9 10 0 8 -3
-5 -9z m-69 -15 c-8 -8 -18 -15 -22 -15 -3 0 -1 7 6 15 7 8 17 15 22 15 5 0 3
-7 -6 -15z m171 9 c-3 -3 -12 -4 -19 -1 -8 3 -5 6 6 6 11 1 17 -2 13 -5z m96
-14 c4 0 5 4 2 10 -3 5 0 7 9 4 8 -3 17 -12 20 -20 4 -11 -4 -13 -37 -9 -34 3
-39 2 -25 -7 15 -11 15 -13 -5 -23 -12 -5 -24 -21 -27 -34 -3 -14 -12 -26 -20
-29 -12 -3 -12 -2 -2 6 8 5 11 18 7 34 -4 15 -2 29 4 33 6 3 9 10 6 15 -3 5 6
12 20 16 15 4 22 11 18 18 -3 6 -1 6 8 -1 7 -7 17 -13 22 -13z m-306 -97 c-3
-2 -13 -6 -22 -7 -9 -1 -21 -9 -26 -17 -5 -9 -9 -10 -9 -2 0 15 41 44 52 37 5
-3 7 -8 5 -11z m53 -4 c0 -5 -4 -7 -10 -4 -5 3 -10 1 -10 -4 0 -6 -8 -11 -17
-11 -16 1 -16 2 1 15 23 18 36 19 36 4z m211 -22 c-10 -9 -11 -8 -5 6 3 10 9
15 12 12 3 -3 0 -11 -7 -18z m-87 -12 c-4 -8 -11 -12 -16 -9 -6 4 -5 10 3 15
19 12 19 11 13 -6z m166 -4 c0 -5 -7 -14 -15 -21 -12 -10 -15 -10 -15 2 0 8 3
18 7 21 9 10 23 9 23 -2z m-110 -22 c-7 -11 -14 -18 -17 -15 -3 3 0 12 7 21
18 21 23 19 10 -6z m50 12 c0 -5 -7 -11 -14 -14 -10 -4 -13 -1 -9 9 6 15 23
19 23 5z m285 -831 c-3 -5 -14 -10 -23 -10 -15 0 -15 2 -2 10 20 13 33 13 25
0z"/>
<path d="M2115 1810 c3 -5 8 -10 11 -10 2 0 4 5 4 10 0 6 -5 10 -11 10 -5 0
-7 -4 -4 -10z"/>
<path d="M2180 1776 c0 -2 7 -6 15 -10 8 -3 15 -1 15 4 0 6 -7 10 -15 10 -8 0
-15 -2 -15 -4z"/>
<path d="M2090 1581 c-14 -27 -13 -28 13 -27 12 1 22 7 22 16 0 8 5 18 10 22
6 4 0 8 -12 8 -12 0 -27 -9 -33 -19z"/>
<path d="M1953 1565 c0 -8 4 -15 9 -15 4 0 8 7 8 15 0 8 -4 15 -8 15 -5 0 -9
-7 -9 -15z"/>
<path d="M2080 1519 c0 -5 5 -7 10 -4 6 3 10 8 10 11 0 2 -4 4 -10 4 -5 0 -10
-5 -10 -11z"/>
<path d="M1905 3270 c-34 -10 -155 -118 -155 -137 0 -20 47 -27 82 -12 17 7
46 12 64 11 17 -2 53 5 79 13 31 11 50 13 58 7 7 -6 39 -15 72 -21 57 -11 96
-33 82 -47 -4 -4 -46 -1 -95 5 -120 17 -190 -3 -247 -71 -37 -43 -12 -53 26
-10 62 69 160 91 249 56 57 -23 34 -39 -65 -47 -91 -7 -159 -28 -192 -59 -22
-20 -32 -45 -15 -34 13 8 92 -15 92 -27 0 -7 4 -7 12 1 8 8 8 15 -1 26 -16 19
-6 36 23 36 16 0 24 -8 31 -32 8 -26 19 -36 53 -48 42 -14 60 -33 22 -23 -13
3 -20 0 -20 -8 0 -11 -2 -11 -10 1 -5 8 -10 10 -10 4 0 -11 45 -54 56 -54 4 0
17 -11 30 -25 13 -14 32 -25 44 -25 11 0 20 -5 20 -12 0 -7 6 -5 18 4 9 9 33
18 52 22 59 11 114 48 125 84 6 20 19 37 37 44 27 13 28 13 21 83 -4 46 -12
74 -22 81 -12 10 -13 15 -3 27 7 8 10 22 6 31 -3 9 -1 16 4 16 6 0 13 -8 15
-17 4 -15 5 -14 6 3 1 25 -79 115 -86 96 -4 -10 -9 -8 -19 5 -9 12 -13 13 -14
5 0 -10 -11 -7 -39 9 -30 17 -49 20 -78 16 -26 -4 -33 -3 -23 3 12 8 10 10
-10 11 -68 5 -128 3 -123 -3 2 -5 -6 -8 -19 -8 -18 0 -20 2 -8 10 12 8 12 10
-5 10 -11 0 -36 2 -55 5 -19 2 -49 0 -65 -5z m70 -10 c-3 -5 -14 -10 -23 -10
-15 0 -15 2 -2 10 20 13 33 13 25 0z m429 -126 c3 -8 2 -12 -4 -9 -6 3 -10 10
-10 16 0 14 7 11 14 -7z"/>
<path d="M3488 3233 c7 -3 16 -2 19 1 4 3 -2 6 -13 5 -11 0 -14 -3 -6 -6z"/>
<path d="M1291 2994 c-27 -34 -36 -120 -20 -183 7 -28 16 -51 20 -51 4 0 14
31 23 70 8 38 24 87 35 108 21 41 18 53 -16 70 -19 10 -24 8 -42 -14z"/>
<path d="M1317 2582 c3 -12 9 -25 14 -28 14 -8 11 10 -6 32 -13 18 -14 18 -8
-4z"/>
<path d="M1386 2483 c-12 -54 -15 -134 -5 -128 5 4 9 12 9 20 0 7 6 15 13 18
9 3 9 7 0 18 -8 10 -9 20 -3 29 12 19 13 70 1 70 -5 0 -12 -12 -15 -27z"/>
<path d="M3312 2473 c2 -10 9 -17 14 -16 6 1 28 -14 49 -33 42 -37 44 -38 63
-25 11 6 8 12 -10 27 -13 11 -27 27 -30 36 -4 10 -14 15 -26 11 -11 -2 -30 0
-42 7 -19 10 -21 9 -18 -7z"/>
<path d="M1356 2248 c-8 -33 -7 -68 2 -68 5 0 9 20 11 45 2 49 -3 58 -13 23z"/>
<path d="M1695 2040 c-3 -5 -2 -18 4 -27 7 -14 9 -12 8 10 -2 30 -3 31 -12 17z"/>
<path d="M3470 2029 c0 -11 5 -17 10 -14 6 3 10 13 10 21 0 8 -4 14 -10 14 -5
0 -10 -9 -10 -21z"/>
<path d="M3514 2008 c-4 -6 -3 -8 4 -4 5 3 12 1 14 -6 3 -8 6 -9 11 -1 4 6 0
13 -8 17 -8 3 -17 0 -21 -6z"/>
<path d="M1722 1940 c0 -14 2 -19 5 -12 2 6 2 18 0 25 -3 6 -5 1 -5 -13z"/>
<path d="M1520 1870 c0 -14 5 -18 17 -13 11 4 13 8 5 11 -7 2 -10 8 -6 13 3 5
0 9 -5 9 -6 0 -11 -9 -11 -20z"/>
<path d="M1707 1844 c-8 -8 1 -24 14 -24 5 0 9 7 9 15 0 15 -12 20 -23 9z"/>
<path d="M1661 1774 c0 -11 3 -14 6 -6 3 7 2 16 -1 19 -3 4 -6 -2 -5 -13z"/>
</g>
</svg>
